<!-- Iconos SVG para servicios -->
<svg style="display: none;">
  <!-- Icono Desarrollo Web -->
  <symbol id="icon-web-dev" viewBox="0 0 24 24">
    <path fill="currentColor" d="M12 2C6.48 2 2 6.48 2 12s4.48 10 10 10 10-4.48 10-10S17.52 2 12 2zM9.29 16.29L5.7 12.7a.996.996 0 0 1 0-1.41L9.29 7.71c.39-.39 1.02-.39 1.41 0 .39.39.39 1.02 0 1.41L7.83 12l2.88 2.88c.39.39.39 1.02 0 1.41-.39.39-1.03.39-1.42 0zm5.42 0c-.39.39-1.02.39-1.41 0-.39-.39-.39-1.02 0-1.41L16.17 12l-2.88-2.88c-.39-.39-.39-1.02 0-1.41.39-.39 1.02-.39 1.41 0l3.59 3.59c.39.39.39 1.02 0 1.41l-3.58 3.58z"/>
  </symbol>
  
  <!-- Icono Comercio Electrónico -->
  <symbol id="icon-ecommerce" viewBox="0 0 24 24">
    <path fill="currentColor" d="M7 18c-1.1 0-2 .9-2 2s.9 2 2 2 2-.9 2-2-.9-2-2-2zM1 2v2h2l3.6 7.59-1.35 2.45c-.16.28-.25.61-.25.96 0 1.1.9 2 2 2h12v-2H7.42c-.14 0-.25-.11-.25-.25l.03-.12L8.1 13h7.45c.75 0 1.41-.41 1.75-1.03L21.7 4H5.21l-.94-2H1zm16 16c-1.1 0-2 .9-2 2s.9 2 2 2 2-.9 2-2-.9-2-2-2z"/>
  </symbol>
  
  <!-- Icono Automatización -->
  <symbol id="icon-automation" viewBox="0 0 24 24">
    <path fill="currentColor" d="M12 2C6.48 2 2 6.48 2 12s4.48 10 10 10 10-4.48 10-10S17.52 2 12 2zm-1 17.93c-3.94-.49-7-3.85-7-7.93 0-.62.08-1.21.21-1.79L9 15v1c0 1.1.9 2 2 2v1.93zm6.9-2.54c-.26-.81-1-1.39-1.9-1.39h-1v-3c0-.55-.45-1-1-1H8v-2h2c.55 0 1-.45 1-1V7h2c1.1 0 2-.9 2-2v-.41c2.93 1.19 5 4.06 5 7.41 0 2.08-.8 3.97-2.1 5.39z"/>
  </symbol>
  
  <!-- Icono SEO -->
  <symbol id="icon-seo" viewBox="0 0 24 24">
    <path fill="currentColor" d="M15.5 14h-.79l-.28-.27C15.41 12.59 16 11.11 16 9.5 16 5.91 13.09 3 9.5 3S3 5.91 3 9.5 5.91 16 9.5 16c1.61 0 3.09-.59 4.23-1.57l.27.28v.79l5 4.99L20.49 19l-4.99-5zm-6 0C7.01 14 5 11.99 5 9.5S7.01 5 9.5 5 14 7.01 14 9.5 11.99 14 9.5 14z"/>
    <path fill="currentColor" d="M12 6.5h-2v4h2V9h1V7.5h-1z"/>
  </symbol>
</svg>